<svg aria-hidden="true" style="position: absolute; width: 0; height: 0; overflow: hidden;" version="1.1" xmlns="http://www.w3.org/2000/svg" xmlns:xlink="http://www.w3.org/1999/xlink">
<defs>
<symbol id="arrow" viewBox="0 0 19 32">
<path stroke="#d41443" style="stroke: var(--color1, #d41443)" stroke-linejoin="round" stroke-linecap="round" stroke-miterlimit="4" stroke-width="6.4" d="M3.2 3.2l12.8 12.8-12.8 12.8"></path>
</symbol>
<symbol id="burger" viewBox="0 0 32 32">
<path fill="none" stroke="#d41443" style="stroke: var(--color1, #d41443)" stroke-linejoin="miter" stroke-linecap="butt" stroke-miterlimit="4" stroke-width="1.6" d="M0 6.4h32"></path>
<path fill="none" stroke="#d41443" style="stroke: var(--color1, #d41443)" stroke-linejoin="miter" stroke-linecap="butt" stroke-miterlimit="4" stroke-width="1.6" d="M0 16h32"></path>
<path fill="none" stroke="#d41443" style="stroke: var(--color1, #d41443)" stroke-linejoin="miter" stroke-linecap="butt" stroke-miterlimit="4" stroke-width="1.6" d="M0 25.6h32"></path>
</symbol>
<symbol id="close" viewBox="0 0 32 32">
<path fill="none" stroke="#fff" style="stroke: var(--color3, #fff)" stroke-linejoin="miter" stroke-linecap="butt" stroke-miterlimit="4" stroke-width="2" d="M2.519 2l26.963 28"></path>
<path fill="none" stroke="#fff" style="stroke: var(--color3, #fff)" stroke-linejoin="miter" stroke-linecap="butt" stroke-miterlimit="4" stroke-width="2" d="M2 29.481l28-26.963"></path>
</symbol>
<symbol id="ellipsis" viewBox="0 0 32 32">
<path d="M32 16c0 8.837-7.163 16-16 16s-16-7.163-16-16c0-8.837 7.163-16 16-16s16 7.163 16 16z"></path>
</symbol>
<symbol id="facebook1" viewBox="0 0 16 32">
<path d="M14.266 15.97h-4.176v15.39h-6.327v-15.39h-3.009v-5.409h3.009v-3.5c0-2.503 1.182-6.422 6.384-6.422l4.687 0.020v5.25h-3.401c-0.558 0-1.342 0.28-1.342 1.474v3.183h4.729l-0.553 5.403z"></path>
</symbol>
<symbol id="github1" viewBox="0 0 32 32">
<path d="M16 0.941c-8.271 0-15.059 6.788-15.059 15.059 0 7.058 4.953 13.47 11.529 15.059v-4.982c-0.652 0.143-1.251 0.147-1.915-0.049-0.89-0.263-1.613-0.856-2.15-1.76-0.342-0.577-0.949-1.203-1.581-1.157l-0.155-1.758c1.368-0.117 2.551 0.833 3.254 2.013 0.312 0.525 0.671 0.832 1.132 0.969 0.446 0.131 0.924 0.068 1.481-0.129 0.14-1.116 0.651-1.534 1.037-2.122v-0.001c-3.922-0.585-5.486-2.666-6.106-4.308-0.822-2.181-0.381-4.905 1.073-6.627 0.028-0.034 0.079-0.121 0.060-0.183-0.667-2.014 0.146-3.679 0.176-3.856 0.769 0.228 0.894-0.229 3.342 1.258l0.423 0.254c0.177 0.105 0.121 0.045 0.298 0.032 1.022-0.278 2.099-0.431 3.16-0.445 1.069 0.014 2.14 0.167 3.204 0.456l0.137 0.014c-0.012-0.002 0.037-0.009 0.12-0.058 3.057-1.852 2.947-1.247 3.767-1.513 0.030 0.177 0.831 1.87 0.172 3.858-0.089 0.274 2.65 2.782 1.132 6.809-0.62 1.643-2.184 3.724-6.106 4.309v0.001c0.503 0.766 1.107 1.174 1.104 2.755v6.219c6.577-1.589 11.529-8.001 11.529-15.059 0-8.271-6.787-15.059-15.059-15.059v0z"></path>
</symbol>
<symbol id="quotes" viewBox="0 0 43 32">
<path d="M32.014 0c1.929 0 3.75 0.52 5.464 1.561s3.107 2.537 4.179 4.488c1.029 1.951 1.543 4.249 1.543 6.894s-0.643 5.225-1.929 7.74c-0.429 0.911-1.2 2.081-2.314 3.512-1.157 1.431-2.229 2.667-3.214 3.707l-4.050 4.098-2.893-4.813c2.014-1.257 3.793-2.818 5.336-4.683 1.543-1.821 2.314-3.491 2.314-5.008 0-0.78-0.171-1.409-0.514-1.886-1.5 1.084-3.171 1.626-5.014 1.626-1.329 0-2.593-0.412-3.793-1.236-1.243-0.78-2.229-1.821-2.957-3.122-0.771-1.258-1.157-2.558-1.157-3.902 0-1.518 0.45-2.97 1.35-4.358 0.857-1.388 1.993-2.515 3.407-3.382 1.371-0.824 2.786-1.236 4.243-1.236zM8.936 0c1.929 0 3.75 0.52 5.464 1.561s3.107 2.537 4.179 4.488c1.029 1.951 1.543 4.249 1.543 6.894 0 1.864-0.236 3.534-0.707 5.008-0.471 1.518-1.286 3.1-2.443 4.748-1.114 1.561-2.164 2.862-3.15 3.902-0.986 1.084-2.7 2.884-5.143 5.398l-2.893-4.813c2.014-1.257 3.793-2.818 5.336-4.683 1.543-1.821 2.314-3.491 2.314-5.008 0-0.78-0.171-1.409-0.514-1.886-1.5 1.084-3.171 1.626-5.014 1.626-1.329 0-2.593-0.412-3.793-1.236-1.243-0.78-2.229-1.821-2.957-3.122-0.771-1.258-1.157-2.558-1.157-3.902 0-1.518 0.429-2.97 1.286-4.358s1.993-2.515 3.407-3.382c1.371-0.824 2.786-1.236 4.243-1.236z"></path>
</symbol>
<symbol id="telegram1" viewBox="0 0 40 32">
<path d="M16.205 20.751l-0.635 8.339c0.909 0 1.302-0.364 1.774-0.802l4.261-3.801 8.829 6.035c1.619 0.842 2.76 0.399 3.197-1.39l5.797-25.346c0.514-2.234-0.866-3.108-2.443-2.56l-34.065 12.172c-2.325 0.842-2.29 2.052-0.395 2.6l8.709 2.528 20.229-11.814c0.952-0.588 1.818-0.263 1.106 0.326l-16.364 13.713z"></path>
</symbol>
<symbol id="modal-btn" viewBox="0 0 18 18">
<path d="M15 4.10786L13.8921 3L9.5 7.39214L5.10786 3L4 4.10786L8.39214 8.5L4 12.8921L5.10786 14L9.5 9.60786L13.8921 14L15 12.8921L10.6079 8.5L15 4.10786Z"/>
</symbol>
<symbol id="person-black">
<path d="M9 9a3 3 0 100-6 3 3 0 100 6zm0 1.5c-2.003 0-6 1.005-6 3v.75c0 .412.337.75.75.75h10.5c.412 0 .75-.338.75-.75v-.75c0-1.995-3.998-3-6-3z"/>
</symbol>
<symbol id="phone-black">
<path d="M13.996 11.123l-1.838-.21a1.44 1.44 0 00-1.187.412l-1.332 1.332a10.888 10.888 0 01-4.769-4.77L6.21 6.55a1.44 1.44 0 00.412-1.187l-.21-1.824a1.448 1.448 0 00-1.44-1.28H3.72c-.818 0-1.498.68-1.448 1.497.384 6.18 5.327 11.116 11.5 11.5.817.05 1.498-.63 1.498-1.448v-1.252a1.434 1.434 0 00-1.274-1.432z"/>
</symbol>
<symbol id="email-black">
<path d="M15 3H3c-.825 0-1.492.675-1.492 1.5l-.008 9c0 .825.675 1.5 1.5 1.5h12c.825 0 1.5-.675 1.5-1.5v-9c0-.825-.675-1.5-1.5-1.5zm-.3 3.188L9.398 9.502a.759.759 0 01-.796 0L3.3 6.188a.637.637 0 11.675-1.08L9 8.25l5.025-3.143a.637.637 0 11.675 1.08z"/>
</symbol>
<symbol id="icon-arrow" viewBox="0 0 26 32">
<path fill="none" stroke="#fff" style="stroke: var(--color1, #fff)" stroke-linejoin="round" stroke-linecap="round" stroke-miterlimit="4" stroke-width="6.4" d="M5.173 3.2l14.169 12.8-14.169 12.8"></path>
</symbol>
</defs>
</svg>
